# xmcd
#
# Track frame offsets: 
#        150
#        14697
#        29572
#        48202
#        72255
#        86765
#        105632
#        117440
#        134035
#        147477
#        163997
#        180270
#        196557
#        211777
#        220992
#
# Disc length: 3186 seconds
#
# Revision: 1
# Processed by: cddbd v1.5.2PL0 Copyright (c) Steve Scherf et al.
# Submitted via: ExactAudioCopy v1.0b3
#
DISCID=df0c700f
DTITLE=Various Artist - Low Blows: An Anthology of Chicago Harmonica Blues
DYEAR=1994
DGENRE=Blues
TTITLE0=Big Guitar Red and Good Rockin' Charles - Found My Baby (Gone)
TTITLE1=Big Leon Brooks - Kicking Up Dust
TTITLE2=Mojo Buford - Don't Go No Farther
TTITLE3=Easy Baby - Good Morning Mr. Blues
TTITLE4=Good Rockin' Charles - She Loves Another Man
TTITLE5=Big Leon Brooks - Pink Champagne
TTITLE6=Joe Carter and Big John Wrencher - Take A Little Walk With Me
TTITLE7=Golden Wheeler - Good Lover
TTITLE8=Big Walter Horton and Carey Bell - Avenue Stomp
TTITLE9=Good Rockin' Charles - Ground Hog Blues
TTITLE10=Golden Wheeler - Evil Woman
TTITLE11=Big Leon Brooks - You Know
TTITLE12=Good Rockin' Charles - I Got To Go
TTITLE13=Good Rockin' Charles - Good Rockin'
TTITLE14=Joe Carter and Big John Wrencher - Honey Bee
EXTD=
EXTT0=
EXTT1=
EXTT2=
EXTT3=
EXTT4=
EXTT5=
EXTT6=
EXTT7=
EXTT8=
EXTT9=
EXTT10=
EXTT11=
EXTT12=
EXTT13=
EXTT14=
PLAYORDER=
